<svg width="38" height="38" viewBox="0 0 38 38" fill="none" xmlns="http://www.w3.org/2000/svg">
<g clip-path="url(#clip0_1_3)">
<path d="M38 19C38 8.50659 29.4934 0 19 0C8.50659 0 0 8.50659 0 19C0 29.4934 8.50659 38 19 38C29.4934 38 38 29.4934 38 19Z" fill="#F77E53"/>
<path d="M16.944 29.168C16.496 29.168 15.964 29.1213 15.348 29.028C14.7507 28.9347 14.172 28.7387 13.612 28.44C13.052 28.1227 12.5853 27.6467 12.212 27.012C11.8387 26.3587 11.652 25.4813 11.652 24.38V13.208C11.652 12.2373 11.8013 11.4253 12.1 10.772C12.4173 10.1187 12.8093 9.61467 13.276 9.26C13.7613 8.88667 14.3027 8.62533 14.9 8.476C15.4973 8.308 16.076 8.224 16.636 8.224C18.1293 8.224 19.4267 8.252 20.528 8.308C21.6293 8.34533 22.6 8.392 23.44 8.448C24.28 8.504 25.036 8.56 25.708 8.616V12.704H18.092C17.588 12.704 17.196 12.8253 16.916 13.068C16.636 13.292 16.496 13.656 16.496 14.16V16.456L24.336 16.736V20.544L16.496 20.796V22.98C16.496 23.3907 16.5613 23.7173 16.692 23.96C16.8227 24.184 17 24.352 17.224 24.464C17.448 24.576 17.6907 24.632 17.952 24.632H25.708V28.692C24.8867 28.7853 23.972 28.8693 22.964 28.944C21.956 29.0187 20.9293 29.0653 19.884 29.084C18.8573 29.1213 17.8773 29.1493 16.944 29.168Z" fill="white"/>
</g>
<defs>
<clipPath id="clip0_1_3">
<rect width="38" height="38" fill="white"/>
</clipPath>
</defs>
</svg>
