<svg width="30" height="30" viewBox="0 0 30 30" fill="none" xmlns="http://www.w3.org/2000/svg">
<path opacity="0.8" d="M28.5 18H27V3H28.5C28.8978 3 29.2794 2.84196 29.5607 2.56066C29.842 2.27936 30 1.89782 30 1.5C30 1.10218 29.842 0.720644 29.5607 0.43934C29.2794 0.158035 28.8978 0 28.5 0H1.5C1.10218 0 0.720644 0.158035 0.43934 0.43934C0.158035 0.720644 0 1.10218 0 1.5C0 1.89782 0.158035 2.27936 0.43934 2.56066C0.720644 2.84196 1.10218 3 1.5 3H3V18H1.5C1.10218 18 0.720644 18.158 0.43934 18.4393C0.158035 18.7206 0 19.1022 0 19.5C0 19.8978 0.158035 20.2794 0.43934 20.5607C0.720644 20.842 1.10218 21 1.5 21H13.5V22.725L6.675 27.225C6.395 27.3983 6.17982 27.659 6.06265 27.9667C5.94549 28.2745 5.93285 28.6122 6.02669 28.9279C6.12053 29.2435 6.31564 29.5195 6.5819 29.7133C6.84816 29.907 7.17079 30.0078 7.5 30C7.7949 30.0034 8.08344 29.9142 8.325 29.745L13.5 26.325V28.5C13.5 28.8978 13.658 29.2794 13.9393 29.5607C14.2206 29.842 14.6022 30 15 30C15.3978 30 15.7794 29.842 16.0607 29.5607C16.342 29.2794 16.5 28.8978 16.5 28.5V26.325L21.675 29.745C21.9166 29.9142 22.2051 30.0034 22.5 30C22.8205 29.9975 23.1317 29.8925 23.3882 29.7002C23.6446 29.508 23.8327 29.2387 23.9249 28.9318C24.0172 28.6249 24.0087 28.2965 23.9007 27.9947C23.7928 27.693 23.591 27.4337 23.325 27.255L16.5 22.755V21H28.5C28.8978 21 29.2794 20.842 29.5607 20.5607C29.842 20.2794 30 19.8978 30 19.5C30 19.1022 29.842 18.7206 29.5607 18.4393C29.2794 18.158 28.8978 18 28.5 18ZM24 18H6V3H24V18ZM11.415 15.39C11.8148 15.6262 12.2706 15.7508 12.735 15.7508C13.1994 15.7508 13.6552 15.6262 14.055 15.39L18.555 12.78C18.9397 12.5439 19.2574 12.2131 19.4779 11.8192C19.6983 11.4252 19.814 10.9814 19.814 10.53C19.814 10.0786 19.6983 9.63476 19.4779 9.24085C19.2574 8.84694 18.9397 8.51612 18.555 8.28L14.055 5.67C13.6552 5.4338 13.1994 5.30919 12.735 5.30919C12.2706 5.30919 11.8148 5.4338 11.415 5.67C11.0121 5.8971 10.6782 6.22889 10.4485 6.63025C10.2187 7.03161 10.1018 7.48762 10.11 7.95V13.17C10.1125 13.6222 10.2345 14.0658 10.4637 14.4556C10.6929 14.8455 11.0211 15.1679 11.415 15.39ZM13.11 8.52L16.5 10.5L13.08 12.48L13.11 8.52Z" fill="#101130"/>
</svg>
