<svg width="28" height="30" viewBox="0 0 28 30" fill="none" xmlns="http://www.w3.org/2000/svg">
<path opacity="0.8" d="M20 18H8C7.60218 18 7.22064 18.158 6.93934 18.4393C6.65804 18.7206 6.5 19.1022 6.5 19.5C6.5 19.8978 6.65804 20.2794 6.93934 20.5607C7.22064 20.842 7.60218 21 8 21H20C20.3978 21 20.7794 20.842 21.0607 20.5607C21.342 20.2794 21.5 19.8978 21.5 19.5C21.5 19.1022 21.342 18.7206 21.0607 18.4393C20.7794 18.158 20.3978 18 20 18ZM20 12H11C10.6022 12 10.2206 12.158 9.93934 12.4393C9.65804 12.7206 9.5 13.1022 9.5 13.5C9.5 13.8978 9.65804 14.2794 9.93934 14.5607C10.2206 14.842 10.6022 15 11 15H20C20.3978 15 20.7794 14.842 21.0607 14.5607C21.342 14.2794 21.5 13.8978 21.5 13.5C21.5 13.1022 21.342 12.7206 21.0607 12.4393C20.7794 12.158 20.3978 12 20 12ZM26 3H21.5V1.5C21.5 1.10218 21.342 0.720644 21.0607 0.43934C20.7794 0.158035 20.3978 0 20 0C19.6022 0 19.2206 0.158035 18.9393 0.43934C18.658 0.720644 18.5 1.10218 18.5 1.5V3H15.5V1.5C15.5 1.10218 15.342 0.720644 15.0607 0.43934C14.7794 0.158035 14.3978 0 14 0C13.6022 0 13.2206 0.158035 12.9393 0.43934C12.658 0.720644 12.5 1.10218 12.5 1.5V3H9.5V1.5C9.5 1.10218 9.34196 0.720644 9.06066 0.43934C8.77936 0.158035 8.39782 0 8 0C7.60218 0 7.22064 0.158035 6.93934 0.43934C6.65804 0.720644 6.5 1.10218 6.5 1.5V3H2C1.60218 3 1.22064 3.15804 0.93934 3.43934C0.658035 3.72064 0.5 4.10218 0.5 4.5V25.5C0.5 26.6935 0.974106 27.8381 1.81802 28.682C2.66193 29.5259 3.80653 30 5 30H23C24.1935 30 25.3381 29.5259 26.182 28.682C27.0259 27.8381 27.5 26.6935 27.5 25.5V4.5C27.5 4.10218 27.342 3.72064 27.0607 3.43934C26.7794 3.15804 26.3978 3 26 3V3ZM24.5 25.5C24.5 25.8978 24.342 26.2794 24.0607 26.5607C23.7794 26.842 23.3978 27 23 27H5C4.60218 27 4.22064 26.842 3.93934 26.5607C3.65804 26.2794 3.5 25.8978 3.5 25.5V6H6.5V7.5C6.5 7.89782 6.65804 8.27936 6.93934 8.56066C7.22064 8.84196 7.60218 9 8 9C8.39782 9 8.77936 8.84196 9.06066 8.56066C9.34196 8.27936 9.5 7.89782 9.5 7.5V6H12.5V7.5C12.5 7.89782 12.658 8.27936 12.9393 8.56066C13.2206 8.84196 13.6022 9 14 9C14.3978 9 14.7794 8.84196 15.0607 8.56066C15.342 8.27936 15.5 7.89782 15.5 7.5V6H18.5V7.5C18.5 7.89782 18.658 8.27936 18.9393 8.56066C19.2206 8.84196 19.6022 9 20 9C20.3978 9 20.7794 8.84196 21.0607 8.56066C21.342 8.27936 21.5 7.89782 21.5 7.5V6H24.5V25.5Z" fill="#101130"/>
</svg>
