<svg width="32" height="32" viewBox="0 0 32 32" fill="none" xmlns="http://www.w3.org/2000/svg">
<path opacity="0.8" d="M29.755 1.09006C28.6798 0.90486 27.591 0.809531 26.5 0.80506C22.7776 0.802009 19.1327 1.86942 16 3.88006C12.8592 1.89582 9.21498 0.854606 5.5 0.88006C4.40897 0.884531 3.32021 0.97986 2.245 1.16506C1.89281 1.22578 1.57388 1.41025 1.34562 1.68525C1.11737 1.96025 0.994809 2.30771 1 2.66506V20.6651C0.996792 20.8855 1.04219 21.1039 1.13298 21.3047C1.22377 21.5056 1.3577 21.684 1.52526 21.8272C1.69283 21.9704 1.88989 22.0749 2.10244 22.1333C2.31499 22.1917 2.53779 22.2026 2.75501 22.1651C4.90453 21.7929 7.10681 21.8546 9.2321 22.3467C11.3574 22.8387 13.3627 23.7511 15.13 25.0301L15.31 25.1351H15.475C15.6414 25.2044 15.8198 25.2401 16 25.2401C16.1802 25.2401 16.3587 25.2044 16.525 25.1351H16.69L16.87 25.0301C18.6249 23.7225 20.6245 22.7806 22.7502 22.2601C24.8759 21.7396 27.0845 21.6512 29.245 22.0001C29.4622 22.0376 29.685 22.0267 29.8976 21.9683C30.1101 21.9099 30.3072 21.8054 30.4747 21.6622C30.6423 21.519 30.7762 21.3406 30.867 21.1397C30.9578 20.9389 31.0032 20.7205 31 20.5001V2.50006C30.9844 2.15829 30.8524 1.83213 30.626 1.57567C30.3995 1.31921 30.0922 1.14787 29.755 1.09006ZM14.5 21.0251C11.7248 19.5651 8.63578 18.8031 5.5 18.8051C5.005 18.8051 4.51 18.8051 4 18.8051V3.80506C4.49959 3.77627 5.00042 3.77627 5.5 3.80506C8.70008 3.80152 11.8303 4.7406 14.5 6.50506V21.0251ZM28 18.8651C27.49 18.8651 26.995 18.8651 26.5 18.8651C23.3642 18.8631 20.2752 19.6251 17.5 21.0851V6.50506C20.1697 4.7406 23.2999 3.80152 26.5 3.80506C26.9996 3.77627 27.5004 3.77627 28 3.80506V18.8651ZM29.755 25.0901C28.6798 24.9049 27.591 24.8095 26.5 24.8051C22.7776 24.802 19.1327 25.8694 16 27.8801C12.8673 25.8694 9.22246 24.802 5.5 24.8051C4.40897 24.8095 3.32021 24.9049 2.245 25.0901C2.04975 25.121 1.86254 25.1903 1.69415 25.2939C1.52576 25.3975 1.37951 25.5334 1.2638 25.6937C1.1481 25.854 1.06523 26.0356 1.01996 26.228C0.974688 26.4205 0.967906 26.62 1 26.8151C1.07623 27.2046 1.30374 27.548 1.63269 27.7701C1.96164 27.9922 2.36521 28.0749 2.75501 28.0001C4.90453 27.6279 7.10681 27.6896 9.2321 28.1817C11.3574 28.6737 13.3627 29.5861 15.13 30.8651C15.384 31.0459 15.6881 31.1431 16 31.1431C16.3119 31.1431 16.616 31.0459 16.87 30.8651C18.6373 29.5861 20.6426 28.6737 22.7679 28.1817C24.8932 27.6896 27.0955 27.6279 29.245 28.0001C29.6348 28.0749 30.0384 27.9922 30.3673 27.7701C30.6963 27.548 30.9238 27.2046 31 26.8151C31.0321 26.62 31.0253 26.4205 30.98 26.228C30.9348 26.0356 30.8519 25.854 30.7362 25.6937C30.6205 25.5334 30.4742 25.3975 30.3059 25.2939C30.1375 25.1903 29.9503 25.121 29.755 25.0901V25.0901Z" fill="#101130"/>
</svg>
